<?xml version="1.0" standalone="no"?>
<!DOCTYPE svg PUBLIC "-//W3C//DTD SVG 20010904//EN"
 "http://www.w3.org/TR/2001/REC-SVG-20010904/DTD/svg10.dtd">
<svg version="1.0" xmlns="http://www.w3.org/2000/svg"
 width="1500.000000pt" height="1500.000000pt" viewBox="0 0 1500.000000 1500.000000"
 preserveAspectRatio="xMidYMid meet">

<g transform="translate(0.000000,1500.000000) scale(0.100000,-0.100000)"
fill="#000000" stroke="none">
<path d="M3155 8765 c-460 -85 -849 -369 -1059 -775 -111 -216 -155 -385 -163
-635 -6 -200 14 -349 71 -520 135 -402 442 -735 827 -896 203 -85 349 -113
589 -114 206 0 279 11 456 70 212 70 404 186 560 337 90 87 204 224 204 244 0
10 -254 180 -265 177 -4 -1 -34 -35 -68 -76 -176 -210 -399 -347 -660 -403
-102 -22 -297 -29 -397 -15 -499 73 -889 453 -976 952 -24 138 -15 351 19 482
61 232 210 462 395 609 455 362 1091 335 1516 -63 39 -37 91 -94 116 -128 25
-33 48 -60 53 -61 10 0 267 172 267 180 0 26 -159 208 -250 287 -212 183 -457
300 -727 348 -108 18 -407 19 -508 0z"/>
<path d="M11070 7455 l0 -1165 140 0 140 0 0 1165 0 1165 -140 0 -140 0 0
-1165z"/>
<path d="M8734 8492 c-107 -68 -110 -224 -6 -296 61 -42 156 -34 210 17 78 73
70 208 -16 272 -40 29 -146 33 -188 7z"/>
<path d="M5738 7910 c-122 -21 -277 -95 -377 -181 -120 -102 -220 -263 -263
-421 -30 -109 -31 -316 -4 -423 41 -157 119 -288 244 -407 63 -60 101 -87 183
-127 143 -70 206 -85 364 -85 153 -1 241 20 368 86 144 75 287 239 358 411 31
75 73 226 65 234 -7 7 -277 45 -283 39 -3 -3 -12 -33 -20 -68 -32 -142 -128
-287 -234 -353 -136 -87 -329 -97 -474 -26 -117 58 -215 170 -263 304 -24 64
-27 87 -27 202 0 110 4 140 23 197 60 172 205 311 363 347 65 15 177 13 244
-4 68 -18 151 -65 196 -111 l31 -32 -124 -69 c-68 -38 -235 -132 -373 -208
-137 -76 -255 -143 -262 -149 -9 -8 1 -35 43 -113 30 -57 60 -103 65 -103 11
0 1018 556 1033 570 18 17 -88 173 -179 266 -122 122 -229 183 -388 219 -72
16 -228 18 -309 5z"/>
<path d="M7515 7911 c-86 -14 -137 -32 -216 -72 -175 -91 -294 -267 -334 -494
-12 -70 -15 -183 -15 -571 l0 -484 139 0 140 0 4 508 c4 532 5 552 51 640 43
84 138 160 231 187 173 51 367 -25 449 -175 55 -100 56 -113 56 -658 l0 -503
143 3 142 3 3 405 c4 580 -9 702 -91 870 -77 157 -226 279 -397 325 -67 18
-237 27 -305 16z"/>
<path d="M8680 7090 l0 -801 143 3 142 3 3 798 2 797 -145 0 -145 0 0 -800z"/>
<path d="M9342 7358 c4 -521 4 -535 27 -608 67 -223 220 -392 407 -450 143
-44 322 -46 455 -6 159 49 299 168 373 320 81 166 79 153 84 749 l3 527 -140
0 -141 0 0 -482 c0 -515 -4 -569 -50 -659 -12 -23 -44 -66 -71 -95 -174 -184
-502 -133 -619 96 -46 89 -50 143 -50 658 l0 482 -140 0 -141 0 3 -532z"/>
<path d="M12055 7879 c-138 -20 -246 -76 -312 -163 -92 -119 -96 -321 -9 -451
64 -96 163 -157 451 -275 293 -120 350 -152 380 -210 35 -67 4 -148 -70 -185
-38 -19 -63 -20 -432 -23 l-393 -3 0 -139 0 -140 293 0 c413 1 557 17 694 81
158 75 239 235 213 422 -19 130 -85 219 -226 301 -72 42 -136 71 -469 210 -60
25 -125 55 -143 66 -68 41 -93 133 -52 190 40 57 65 60 460 60 l360 0 0 135 0
135 -342 -1 c-189 -1 -370 -5 -403 -10z"/>
<path d="M3580 7305 l0 -165 655 0 655 0 0 165 0 165 -655 0 -655 0 0 -165z"/>
</g>
</svg>
